<?xml version="1.0" encoding="utf-8"?>
<!-- Generator: Adobe Illustrator 17.0.0, SVG Export Plug-In . SVG Version: 6.00 Build 0)  -->
<!DOCTYPE svg PUBLIC "-//W3C//DTD SVG 1.1//EN" "http://www.w3.org/Graphics/SVG/1.1/DTD/svg11.dtd">
<svg version="1.1" id="Ebene_1" xmlns="http://www.w3.org/2000/svg" xmlns:xlink="http://www.w3.org/1999/xlink" x="0px" y="0px"
	 width="135.333px" height="123.333px" viewBox="0 0 135.333 123.333" enable-background="new 0 0 135.333 123.333"
	 xml:space="preserve">
<g>
	<g>
		<defs>
			<rect id="SVGID_1_" x="1" y="1" width="132.839" height="120.763"/>
		</defs>
		<clipPath id="SVGID_2_">
			<use xlink:href="#SVGID_1_"  overflow="visible"/>
		</clipPath>
		<path clip-path="url(#SVGID_2_)" fill="#FFFFFF" d="M122.989,98.094L122.989,98.094H11.846c-8.203,0-8.344-8.004-8.346-8.345
			V11.748c0-8.202,8.003-8.344,8.345-8.346h111.148c8.203,0,8.344,8.003,8.346,8.345v78.001
			C131.339,97.951,123.33,98.092,122.989,98.094"/>
	</g>
	<g>
		<defs>
			<rect id="SVGID_3_" x="1" y="1" width="132.839" height="120.763"/>
		</defs>
		<clipPath id="SVGID_4_">
			<use xlink:href="#SVGID_3_"  overflow="visible"/>
		</clipPath>
		<path clip-path="url(#SVGID_4_)" fill="#EC1C24" d="M11.845,3.6c-0.328,0.002-8.147,0.14-8.147,8.147v78
			c0.002,0.329,0.14,8.148,8.147,8.148h111.143c0.333-0.003,8.152-0.14,8.152-8.148v-78c-0.002-0.328-0.14-8.147-8.148-8.147
			C122.992,3.6,11.845,3.6,11.845,3.6z M122.992,100.468H11.845c-8.48,0-10.72-7.012-10.72-10.721v-78
			c0-8.48,7.012-10.72,10.72-10.72h111.148c8.48,0,10.721,7.012,10.721,10.72v78C133.714,98.228,126.701,100.468,122.992,100.468"/>
	</g>
	<g>
		<defs>
			<rect id="SVGID_5_" x="1" y="1" width="132.839" height="120.763"/>
		</defs>
		<clipPath id="SVGID_6_">
			<use xlink:href="#SVGID_5_"  overflow="visible"/>
		</clipPath>
		<path clip-path="url(#SVGID_6_)" fill="#FFFFFF" d="M92.112,110.646h-2.57v-2.257h1.065h1.505V110.646z M92.112,121.042h-2.57
			v-8.879h1.178h1.391V121.042z M117.746,113.521c-0.991,0-1.494,0.777-1.494,2.309v0.085h3.005v-0.085
			C119.257,114.298,118.748,113.521,117.746,113.521 M118.319,121.182c-2.902,0-4.5-1.634-4.5-4.604c0-1.225,0.362-2.353,1.018-3.18
			c0.712-0.899,1.719-1.374,2.908-1.374c0.408,0,1.363,0,2.221,0.575c1.075,0.723,1.62,2.09,1.62,4.064v0.572h-5.334v0.087
			c0,0.994,0.61,2.155,2.327,2.155c1.01,0,1.949-0.39,2.472-0.656l0.047,1.865C120.231,121.002,119.221,121.182,118.319,121.182
			 M98.122,113.521c-0.991,0-1.493,0.777-1.493,2.309v0.085h3.004v-0.085C99.633,114.298,99.123,113.521,98.122,113.521
			 M98.695,121.182c-2.901,0-4.5-1.634-4.5-4.604c0-1.225,0.362-2.353,1.018-3.18c0.713-0.899,1.72-1.374,2.908-1.374
			c0.408,0,1.363,0,2.22,0.575c1.075,0.723,1.621,2.09,1.621,4.064v0.572h-5.334v0.087c0,0.994,0.609,2.155,2.327,2.155
			c1.01,0,1.949-0.39,2.471-0.656l0.048,1.865C100.607,121.002,99.596,121.182,98.695,121.182 M73.929,113.521
			c-0.991,0-1.494,0.777-1.494,2.309v0.085h3.005v-0.085C75.441,114.298,74.931,113.521,73.929,113.521 M74.503,121.182
			c-2.902,0-4.5-1.634-4.5-4.604c0-1.225,0.362-2.353,1.018-3.18c0.712-0.899,1.718-1.374,2.908-1.374c0.408,0,1.363,0,2.22,0.575
			c1.075,0.723,1.62,2.09,1.62,4.064v0.572h-5.334v0.087c0,0.994,0.609,2.155,2.327,2.155c1.01,0,1.949-0.39,2.472-0.656
			l0.047,1.865C76.415,121.002,75.404,121.182,74.503,121.182 M51.835,110.647h-2.571v-2.257h1.065h1.506L51.835,110.647
			L51.835,110.647z M15.734,121.042h-3.189l-1.565-9.417h-0.181l-1.512,9.417H6.096L3.698,109.09h2.567l1.46,8.617h0.18l1.442-8.617
			h3.19l1.477,8.617h0.18l1.564-8.617h2.324L15.734,121.042z M44.926,121.042H42.25v-9.637h-3.042v-2.316h8.759v2.316h-3.041
			L44.926,121.042L44.926,121.042z M66.199,121.042h-2.572v-7.07c0-0.856-0.016-1.375-0.059-1.808h2.321
			c0.009,0.244,0.02,0.493,0.033,0.737l0.009,0.205c0.009,0.203,0.019,0.409,0.025,0.607l0.002,0.084l0.169,0.001l0.099-0.171
			c0.509-0.894,0.91-1.601,2.372-1.601h0.312v2.342c-0.24-0.051-0.476-0.083-0.834-0.083c-1.653,0-1.876,1.413-1.876,2.796
			L66.199,121.042L66.199,121.042z M51.835,121.043h-2.571v-8.879h1.179h1.391L51.835,121.043L51.835,121.043z M87.058,121.043
			h-2.571v-12.654h1.184h1.387V121.043z M131.14,121.043h-2.571v-5.491c0-1.249-0.624-1.512-1.149-1.512
			c-0.862,0-1.282,0.659-1.282,2.014v4.988h-2.574v-7.071c0-0.867-0.017-1.386-0.059-1.808h2.326
			c0.043,0.475,0.062,0.954,0.062,1.426v0.084l0.18,0.001l0.021-0.053c0.467-1.105,1.23-1.598,2.475-1.598
			c2.125,0,2.571,1.73,2.571,3.18V121.043z M23.794,116.681c-0.941,0-2.9,0-2.9,1.668c0,0.817,0.45,1.267,1.267,1.267
			c0.404,0,1.721-0.168,1.721-2.327v-0.608L23.794,116.681L23.794,116.681z M21.275,121.182c-1.621,0-2.71-1.068-2.71-2.659
			c0-1.244,0.615-2.11,1.827-2.571c0.998-0.381,2.14-0.381,2.569-0.381h0.921v-0.086c0-1.824-1.334-1.824-1.772-1.824
			c-0.575,0-1.312,0.09-2.442,0.74l-0.108-1.827c1.162-0.363,2.112-0.548,2.827-0.548c3.36,0,3.823,1.562,3.823,3.25v3.3
			c0,1.26,0.016,1.879,0.062,2.468h-2.327l-0.069-1.25H23.69l-0.015,0.068C23.56,120.386,22.544,121.182,21.275,121.182
			 M31.348,121.182c-0.517,0-1.822-0.04-2.881-0.409l0.062-1.911c0.647,0.359,1.434,0.563,2.176,0.563
			c1.282,0,1.459-0.451,1.459-0.937c0-0.374-0.452-0.55-1.27-0.871c-0.209-0.081-0.435-0.169-0.676-0.269
			c-1.221-0.51-1.84-1.418-1.84-2.699c0-0.975,0.694-2.624,3.301-2.624c1.022,0,1.935,0.18,2.43,0.34l-0.063,1.863
			c-0.801-0.313-1.441-0.447-2.123-0.447c-0.763,0-1.112,0.387-1.112,0.747c0,0.63,0.47,0.832,1.951,1.383
			c0.907,0.338,1.835,0.906,1.835,2.561C34.597,120.194,33.413,121.182,31.348,121.182 M57.845,113.521
			c-0.991,0-1.494,0.777-1.494,2.309v0.085h3.004v-0.085C59.356,114.298,58.847,113.521,57.845,113.521 M58.418,121.182
			c-2.902,0-4.5-1.634-4.5-4.604c0-1.225,0.361-2.353,1.017-3.18c0.713-0.899,1.72-1.374,2.909-1.374c0.408,0,1.363,0,2.221,0.575
			c1.075,0.723,1.62,2.09,1.62,4.064v0.572h-5.334v0.087c0,0.994,0.61,2.155,2.327,2.155c1.01,0,1.949-0.39,2.472-0.656l0.047,1.865
			C60.33,121.002,59.32,121.182,58.418,121.182 M108.005,113.729c-0.983,0-1.46,0.944-1.46,2.883c0,0.647,0.106,2.761,1.46,2.761
			c1.261,0,1.407-1.575,1.407-2.761C109.411,115.153,109.302,113.729,108.005,113.729 M108.996,121.182
			c-1.458,0-2.062-0.875-2.39-1.533l-0.019-0.048h-0.182v0.086c0,0.484-0.02,0.929-0.06,1.355h-2.435
			c0.034-0.41,0.062-0.892,0.062-1.946V108.39h2.571v5.114h0.179l0.022-0.055c0.215-0.532,0.792-1.423,2.25-1.423
			c1.966,0,3.091,1.589,3.091,4.363C112.087,119.345,110.903,121.182,108.996,121.182"/>
	</g>
	<g>
		<defs>
			<rect id="SVGID_7_" x="1" y="1" width="132.839" height="120.763"/>
		</defs>
		<clipPath id="SVGID_8_">
			<use xlink:href="#SVGID_7_"  overflow="visible"/>
		</clipPath>
		<path clip-path="url(#SVGID_8_)" fill="#EC1C24" d="M121.597,72.826h-9.488v11.099h4.165v-4.016h5.158v-2.551h-5.158v-1.982h5.323
			V72.826z M110.985,76.615c0-2.794-2.09-3.789-4.046-3.789h-7.36v11.099h4.166v-3.24h3.178c1.173,0,2.165-0.331,2.866-0.954
			C110.583,79.027,110.985,77.978,110.985,76.615 M98.523,83.925l-3.959-11.1h-5.837l-3.896,11.1h4.137l0.687-2.435h3.768
			l0.742,2.435H98.523z M83.854,72.826h-3.552v7.936h-0.174l-2.078-7.936h-6.327v11.099h3.547v-8.163h0.176l2.197,8.163h6.211
			L83.854,72.826L83.854,72.826z M70.579,80.422c0-2.675-2.338-3.124-4.048-3.452c-1.046-0.201-1.872-0.36-1.872-0.965
			c0-0.822,1.308-0.822,1.936-0.822c1.096,0,2.221,0.186,3.257,0.534v-2.71c-1.193-0.24-2.486-0.373-3.645-0.373
			c-3.789,0-5.71,1.199-5.71,3.564c0,2.688,2.323,3.159,4.02,3.504c1.06,0.215,1.897,0.384,1.897,1.011
			c0,0.772-1.411,0.856-2.018,0.856c-1.288,0-2.667-0.256-3.788-0.703v2.738c1.597,0.36,2.962,0.516,4.565,0.516
			c1.024,0,2.489-0.13,3.643-0.746C69.985,82.747,70.579,81.753,70.579,80.422 M59.614,80.422c0-2.675-2.337-3.124-4.046-3.452
			c-1.046-0.201-1.873-0.36-1.873-0.965c0-0.822,1.307-0.822,1.934-0.822c1.097,0,2.225,0.186,3.26,0.534v-2.71
			c-1.173-0.237-2.5-0.373-3.644-0.373c-3.792,0-5.714,1.199-5.714,3.564c0,2.688,2.324,3.159,4.022,3.504
			c1.061,0.215,1.898,0.384,1.898,1.011c0,0.772-1.409,0.856-2.015,0.856c-1.292,0-2.671-0.256-3.792-0.703v2.738
			c1.597,0.36,2.964,0.516,4.567,0.516c1.025,0,2.489-0.13,3.641-0.746C59.02,82.747,59.614,81.755,59.614,80.422 M48.248,81.374
			h-5.642v-1.691h5.289v-2.55h-5.289v-1.756h5.532v-2.55h-9.6v11.099h9.71V81.374z M37.259,83.925
			c-0.173-0.464-0.267-1.025-0.36-1.574l-0.007-0.032c-0.138-0.808-0.281-1.643-0.646-2.302c-0.445-0.659-1.034-1.033-1.86-1.178
			l-0.012-0.003l-0.046-0.055V78.68l0.005-0.013l0.056-0.014c1.77-0.427,2.632-1.377,2.632-2.908c0-1.964-1.399-2.919-4.276-2.919
			h-6.903v11.099h4.163v-3.822h1.048c0.52,0,1.012,0.048,1.295,0.626c0.231,0.434,0.335,1.304,0.426,2.072l0.009,0.073
			c0.049,0.398,0.095,0.774,0.155,1.051L37.259,83.925L37.259,83.925z M24.5,72.826h-9.486v11.099h4.162v-4.016h5.163v-2.551h-5.163
			v-1.982H24.5V72.826z M19.899,64.534l0.107,0.176c1.54,0.793,22.375,2.747,48.092,2.747c25.733,0,46.56-1.955,48.091-2.747
			l0.107-0.176l-0.104-0.176c-0.775-0.423-6.027-1.244-14.567-1.993l-2.928-0.242c-4.691-0.368-9.576-0.656-14.521-0.854
			l-3.134-0.114c-4.311-0.14-8.618-0.211-12.801-0.211c-5.362,0-10.874,0.114-16.384,0.339l-4.941,0.232l-6.596,0.406l-5.618,0.441
			c-8.618,0.751-13.917,1.572-14.698,1.996L19.899,64.534 M124.064,88.163c-3.906,1.895-16.455,2.886-26.832,2.886l-28.568,0.147
			h-0.941l-28.326-0.147c-9.909,0-24.031-1.261-27.389-2.886c-1.567-0.76-2.052-1.603-1.656-4.818
			c0.44-3.555,3.126-15.357,3.708-17.722c0.55-2.339,4.485-4.211,11.694-5.562l1.828-0.319c7.395-1.208,17.503-1.903,30.043-2.064
			l1.869-0.019l3.888-0.019l3.84,0.017l1.046,0.005h0.252l1.045-0.005l3.522-0.013l1.308,0.002l1.584,0.006
			c12.135,0.068,22.193,0.607,29.898,1.601l1.265,0.174c4.568,0.64,8.201,1.454,10.797,2.417l0.915,0.365
			c2.318,0.989,3.649,2.138,3.956,3.412c0.551,2.412,2.808,14.91,3.176,17.596C126.446,86.55,125.201,87.611,124.064,88.163
			 M106.824,76.698c0,1.358-1.154,1.533-2.159,1.533h-1.036v-2.951h1.019C105.778,75.279,106.824,75.451,106.824,76.698
			 M32.858,76.423c0,1.223-0.907,1.325-1.837,1.325h-1.209v-2.566h1.273C31.963,75.181,32.858,75.329,32.858,76.423 M91.671,75.15
			l1.253,3.791h-2.721l1.274-3.791l0.063-0.063h0.035h0.033L91.671,75.15 M59.349,7.853l-0.03,0.02l-0.105,0.08l-0.038,0.045
			c-1.517,2.983-3.718,9.166-3.625,12.962l0.056,0.138l0.027,0.019c0.962,0.69,7.086,3.273,9.9,4.415l0.304,0.124l0.123-0.012
			l0.06-0.107l0.003-0.095l-0.002-0.234c0.072-3.64-1.019-8.612-2.779-12.667c-0.685-1.462-1.41-2.663-2.097-3.475
			c-0.585-0.689-1.154-1.114-1.643-1.228L59.349,7.853 M95.794,49.855l-0.004,0.003c-1.396,0.924-3.426,2.059-5.175,2.214
			l-0.08,0.006l-0.099,0.058l-0.017,0.113l0.024,0.079l0.273,0.71c0.402,0.798,0.954,1.446,1.639,1.926L92.405,55l0.181-0.027
			l0.039-0.049c0.361-0.455,0.912-0.754,1.398-1.018l0.363-0.202c0.296-0.17,0.59-0.423,0.748-0.642l0.2-0.314
			c0.142-0.237,0.264-0.441,0.416-0.441l0.194,0.061c0.146,0.078,0.284,0.213,0.203,0.621c-0.118,0.601-0.585,1.101-1.035,1.583
			c-0.287,0.308-0.574,0.616-0.776,0.947l-0.05,0.083l-0.008,0.124l0.097,0.076l0.095,0.018c0.444,0.081,0.896,0.122,1.343,0.122
			l1.056-0.079c1.892-1.136,4.592-4.139,4.46-6.117c-0.043-0.649-0.372-1.1-1.004-1.379c-0.28-0.118-0.577-0.178-0.884-0.178
			C98.308,48.186,97.143,48.96,95.794,49.855 M38.995,45.646l-0.003,0.001c-1.184,0.398-1.878,1.108-1.951,2.001
			c-0.088,1.045,0.71,2.15,2.082,2.883l0.481,0.208l0.137-0.032l0.084-0.084l0.032-0.139l-0.223-0.554
			c-0.174-0.411-0.365-0.861-0.449-1.317c-0.1-0.533,0.001-0.959,0.147-1.091c0.08-0.073,0.158-0.112,0.223-0.112
			c0.096,0,0.194,0.091,0.264,0.244l0.084,0.301c0.084,0.363,0.2,0.858,0.578,1.344c0.422,0.542,0.738,0.963,1.271,1.845l0.11,0.088
			l1.32,0.129l0.13-0.086l0.044-0.118l-0.042-0.15c-0.705-0.562-0.975-1.409-1.161-2.241l-0.101-0.447l-0.029-0.139
			c-0.308-1.483-0.671-2.711-2.014-2.711C39.712,45.468,39.37,45.527,38.995,45.646 M15.673,19.768l0.043,0.031
			c2.842,1.937,7.656,6.157,9.463,9.474l0.017,0.031l-0.014,0.153c-0.614,1.212-5.831,7.29-7.177,8.815l-0.06,0.067l-0.111,0.043
			l-0.101-0.061l-0.066-0.108l-0.353-0.602l-0.027-0.048c-1.383-2.561-2.501-6.246-2.991-9.857
			c-0.267-1.981-0.333-3.694-0.192-5.097l0.014-0.101l0.058-0.36c0.208-1.051,0.571-1.77,1.027-2.062l0.301-0.302L15.673,19.768"/>
	</g>
	<g>
		<defs>
			<rect id="SVGID_9_" x="1" y="1" width="132.839" height="120.763"/>
		</defs>
		<clipPath id="SVGID_10_">
			<use xlink:href="#SVGID_9_"  overflow="visible"/>
		</clipPath>
		<path clip-path="url(#SVGID_10_)" fill="#231F20" d="M68.099,67.258c-25.241,0-46.376-1.888-48-2.725
			c0.785-0.424,6.263-1.246,14.621-1.973c1.751-0.153,3.628-0.302,5.615-0.441c2.083-0.146,4.288-0.283,6.592-0.406
			c1.599-0.084,3.247-0.163,4.938-0.232c5.128-0.209,10.645-0.338,16.376-0.338c4.42,0,8.712,0.078,12.795,0.211
			c1.058,0.034,2.102,0.072,3.131,0.113c5.321,0.214,10.225,0.516,14.514,0.853c1.011,0.079,1.987,0.16,2.927,0.243
			c8.286,0.727,13.714,1.546,14.488,1.97C114.48,65.37,93.344,67.258,68.099,67.258 M102.441,62.282
			c-0.206-0.019-0.4-0.036-0.569-0.051c-0.606-0.053-1.277-0.11-2.006-0.169c-4.038-0.326-9.897-0.724-16.944-0.984
			c-0.911-0.034-1.84-0.066-2.789-0.094c-3.71-0.112-7.701-0.181-11.892-0.181c-5.49,0-10.645,0.118-15.281,0.296
			c-1.278,0.049-2.518,0.101-3.713,0.158c-4.587,0.217-8.528,0.478-11.605,0.715c-1.191,0.091-2.256,0.18-3.175,0.259
			c-0.314,0.027-0.694,0.061-1.124,0.101c-4.302,0.392-13.65,1.341-13.65,2.204c0,0.202,0,0.508,4.098,1.019
			c2.626,0.328,6.295,0.657,10.607,0.951c5.981,0.408,18.31,1.093,33.699,1.093c15.389,0,27.718-0.685,33.698-1.093
			c4.311-0.294,7.98-0.623,10.607-0.951c4.096-0.511,4.096-0.817,4.096-1.019C116.499,63.632,106.388,62.635,102.441,62.282
			 M123.978,87.984c-3.879,1.881-16.391,2.866-26.745,2.866c-4.448,0-9.45,0.038-14.288,0.073c-4.835,0.036-9.835,0.074-14.28,0.074
			h-0.941c-4.419,0-9.354-0.038-14.127-0.074c-4.792-0.036-9.746-0.073-14.199-0.073c-9.887,0-23.967-1.253-27.302-2.866
			c-1.472-0.714-1.927-1.517-1.546-4.614c0.441-3.562,3.123-15.336,3.704-17.7c0.537-2.275,4.526-4.098,11.538-5.412
			c0.588-0.11,1.194-0.217,1.823-0.32c7.302-1.192,17.43-1.898,30.014-2.06c0.615-0.009,1.241-0.014,1.868-0.019
			c1.274-0.011,2.564-0.019,3.885-0.019c1.257,0,2.541,0.007,3.838,0.017c0.474,0.003,0.827,0.005,1.049,0.005h0.252
			c0.221,0,0.575-0.002,1.047-0.005c1.647-0.012,3.25-0.014,4.828-0.011c0.53,0.001,1.06,0.003,1.582,0.005
			c12.189,0.069,22.251,0.617,29.873,1.6c0.431,0.056,0.849,0.114,1.264,0.172c4.555,0.641,8.163,1.447,10.754,2.408
			c0.318,0.118,0.62,0.239,0.907,0.36c2.236,0.955,3.546,2.049,3.841,3.276c0.549,2.399,2.804,14.886,3.173,17.577
			C126.232,86.453,125.054,87.461,123.978,87.984 M18.272,54.87c5.331-3.652,10.264-6.24,16.015-7.896
			c0.117-0.032,0.184-0.154,0.149-0.27c-0.032-0.117-0.153-0.183-0.269-0.148c-5.832,1.677-10.824,4.303-16.22,8.008
			c-0.501-0.483-0.959-0.986-1.363-1.512c5.512-3.417,10.769-5.484,17.865-7.223c0.116-0.029,0.188-0.147,0.159-0.265
			c-0.029-0.118-0.149-0.189-0.264-0.16c-7.158,1.755-12.458,3.841-18.017,7.293c-0.302-0.425-0.57-0.864-0.802-1.316
			c5.692-3.056,12.146-5.287,19.291-6.653c0.118-0.022,0.197-0.137,0.173-0.256c-0.022-0.118-0.137-0.196-0.256-0.173
			c-7.183,1.373-13.674,3.618-19.402,6.691c-1.671-3.649-0.739-7.628,2.775-11.832l0.182-0.217c0.458-0.464,1.419-1.571,3.649-4.23
			c3.868-4.614,3.936-5.087,3.969-5.314l0.02-0.138l-0.064-0.122c-1.726-3.337-6.391-7.51-9.425-9.649
			c0.727-0.169,1.664-0.262,2.768-0.262c3.987,0,9.209,1.149,12.147,2.673l0.314,0.163l0.24-0.259c3.324-3.594,5.69-4.93,8.728-4.93
			c1.489,0,3.222,0.324,5.455,1.018l0.336,0.106l0.191-0.297c2.416-3.772,8.377-8.469,11.708-9.48
			c-1.583,3.311-3.6,9.241-3.432,12.953l0.006,0.139l0.087,0.11c0.516,0.655,6.762,3.268,9.787,4.494
			c0.416,0.169,0.769,0.31,1.039,0.418c0.357,0.142,0.572,0.225,0.583,0.225l0.192,0.084c4.256,1.658,6.796,4.103,7.627,7.241
			c0.136,0.517,0.227,1.053,0.27,1.607l0.011,0.205c-6.43,0.204-13.138,1.555-20.043,4.057c-0.114,0.04-0.174,0.165-0.133,0.279
			c0.033,0.089,0.117,0.145,0.206,0.145L54.6,40.16c6.865-2.486,13.53-3.829,19.918-4.03c0.005,0.222,0.003,0.448-0.008,0.678
			c-0.016,0.336-0.055,0.676-0.104,1.019c-6.504-0.153-12.529,0.747-19.02,2.765c-0.116,0.035-0.18,0.157-0.144,0.273
			c0.029,0.093,0.116,0.154,0.209,0.154l0.065-0.01c6.422-1.995,12.386-2.889,18.82-2.744l-0.037,0.227
			c-0.112,0.57-0.265,1.149-0.456,1.733l-0.019,0.054c-6.411-0.522-11.961-0.281-17.757,1.241c-0.117,0.031-0.188,0.149-0.157,0.266
			c0.026,0.098,0.114,0.165,0.212,0.165l0.055-0.007c5.703-1.497,11.178-1.741,17.492-1.236c-0.921,2.562-2.544,5.221-4.666,7.758
			c-0.281,0.337-0.571,0.671-0.869,1.002c-2.53,2.815-5.645,5.428-9.019,7.528C47.1,57.1,34.76,57.698,25.922,59.334
			C22.943,58.184,20.277,56.693,18.272,54.87 M14.494,27.678c-0.285-2.1-0.319-3.782-0.194-5.045
			c0.023-0.152,0.042-0.308,0.07-0.448c0.198-0.995,0.531-1.671,0.963-1.951l0.271-0.272c2.982,2.032,7.672,6.231,9.401,9.406
			c-0.595,1.17-5.718,7.151-7.15,8.772l-0.02-0.033c-0.129-0.205-0.252-0.423-0.374-0.64C16.096,34.938,14.989,31.331,14.494,27.678
			 M59.437,8.033l0.022-0.001c0.449,0.104,0.975,0.5,1.535,1.162c0.7,0.827,1.41,2.024,2.07,3.428
			c1.564,3.603,2.84,8.638,2.761,12.582l0.002,0.231l-0.215-0.087c-2.46-0.998-8.901-3.705-9.861-4.393
			c-0.088-3.624,2.001-9.714,3.603-12.867L59.437,8.033z M75.373,37.553c0.025-0.234,0.049-0.468,0.061-0.701
			c0.011-0.243,0.014-0.492,0.009-0.745c0.635-0.009,1.267-0.005,1.897,0.009C76.677,36.543,76.017,37.024,75.373,37.553
			 M73.226,56.975c-1.231,0.001-2.453,0.006-3.663,0.014c-0.47,0.003-0.822,0.006-1.042,0.006h-0.252
			c-0.22,0-0.572-0.003-1.042-0.006c-2.091-0.016-4.221-0.02-6.367-0.009c2.724-1.827,5.309-3.994,7.524-6.355
			C69.06,52.887,70.817,55.066,73.226,56.975 M116.048,60.526c-2.31-0.675-5.065-1.231-8.139-1.687
			c0.832-0.926,1.414-1.961,1.687-3.09c0.063,0.198,0.116,0.4,0.186,0.597c0.599,1.684,2.262,2.231,3.73,2.717
			c0.786,0.257,1.528,0.504,1.925,0.877l0.413,0.397L116.048,60.526 M66.847,25.628c2.788-1.983,4.831-4.29,6.653-6.355
			c2.65-3,4.938-5.593,8.709-6.403c3.417-1.004,8.897-0.89,14.666,0.304c5.754,1.156,10.818,3.228,13.574,5.566
			c3.104,2.268,4.15,5.572,5.362,9.397c0.931,2.941,1.986,6.273,4.173,9.564c5.823,8.841,5.621,18.588-0.486,23.736
			c-0.801,0.294-1.672-0.487-3.007-1.77l-0.418-0.4c-0.55-0.516-1.386-0.792-2.271-1.084c-1.328-0.439-2.702-0.89-3.148-2.147
			c-1.268-3.571-1.3-7.453-1.337-11.566c-0.028-3.471-0.06-7.061-0.783-10.94c-0.048-0.252-0.292-0.419-0.539-0.37
			c-0.252,0.047-0.418,0.287-0.37,0.539c0.709,3.799,0.739,7.347,0.769,10.78c0.011,1.323,0.027,2.62,0.078,3.896
			c-1.474-3.655-4.075-7.347-7.18-9.183c-0.221-0.13-0.504-0.057-0.634,0.162c-0.13,0.221-0.058,0.505,0.163,0.634
			c4.993,2.952,8.753,11.322,7.916,15.412c-0.26,1.215-0.945,2.316-1.956,3.277c-9.174-1.256-20.919-1.674-32.099-1.702
			c-3.016-2.172-5.036-4.702-5.547-7.171c2.526-2.853,4.48-5.944,5.509-9.015c2.681,0.242,5.516,0.607,8.591,1.068
			c0.123,0.014,0.232-0.065,0.249-0.185c0.018-0.118-0.065-0.231-0.184-0.248c-3.041-0.455-5.848-0.817-8.507-1.061
			c0.142-0.467,0.264-0.933,0.362-1.396c0.246-0.222,0.496-0.438,0.749-0.648c2.461,0.118,5,0.379,7.667,0.788
			c0.115,0.016,0.23-0.064,0.249-0.183c0.018-0.119-0.064-0.23-0.183-0.249c-2.503-0.383-4.893-0.638-7.214-0.768
			c0.869-0.68,1.759-1.274,2.64-1.726c1.593,0.09,3.168,0.247,4.72,0.486c0.117,0.016,0.232-0.064,0.25-0.184
			c0.019-0.118-0.063-0.23-0.183-0.249c-1.305-0.2-2.626-0.343-3.96-0.438c0.534-0.221,1.061-0.386,1.572-0.481
			c0.251-0.046,0.416-0.287,0.37-0.539c-0.046-0.252-0.285-0.413-0.539-0.371c-1.054,0.195-2.159,0.657-3.263,1.292
			c-0.862-0.031-1.73-0.041-2.603-0.028c-0.032-0.546-0.104-1.108-0.237-1.684c0.998-2.08,2.112-4.182,3.536-6.261
			c0.146-0.21,0.092-0.497-0.119-0.643c-0.211-0.144-0.498-0.09-0.643,0.121c-1.255,1.831-2.267,3.67-3.171,5.492
			c-0.981-2.541-3.24-5.131-7.943-6.977L66.847,25.628 M126.648,83.127c-0.382-2.791-2.617-15.164-3.188-17.656
			c-0.314-1.308-1.481-2.422-3.315-3.373c6.424-5.472,6.683-15.685,0.609-24.906c-2.115-3.186-3.105-6.311-4.062-9.334
			c-1.261-3.981-2.35-7.418-5.671-9.845c-2.27-1.925-6.054-3.68-10.484-4.913c0.215-0.331,0.326-0.549,0.503-0.854
			c0.165-0.286,0.22-0.363,0.676-1.241c0.111-0.213,0.107-0.464-0.085-0.607c-0.19-0.142-0.487-0.12-0.607,0.086
			c-0.523,0.906-0.677,1.191-0.908,1.587c-0.079,0.137-0.19,0.324-0.369,0.621l-0.094,0.174c-0.343-0.088-0.702-0.16-1.052-0.243
			c0.186-0.269,0.279-0.445,0.428-0.705c0.098-0.171,0.252-0.484,0.669-1.23c0.118-0.21,0.107-0.463-0.084-0.607
			c-0.191-0.144-0.488-0.121-0.607,0.086c-0.352,0.619-0.59,1.042-0.758,1.356c-0.077,0.142-0.253,0.483-0.556,0.85l-0.023,0.037
			c-0.169-0.037-0.331-0.078-0.498-0.115l0.001-0.014c0-0.23,0.022-0.45,0.1-0.923c0.084-0.513,0.187-0.736,0.254-1.741
			c0.015-0.239-0.187-0.436-0.424-0.441c-0.228,0.012-0.433,0.185-0.442,0.424c-0.037,0.858-0.206,1.474-0.245,1.66
			c-0.049,0.241-0.095,0.509-0.107,0.863c-0.374-0.072-0.746-0.139-1.115-0.202c0.032-0.329,0.061-0.51,0.084-0.653
			c0.054-0.343,0.083-0.533,0.111-2.015c0.003-0.239-0.187-0.436-0.426-0.441c-0.231,0.019-0.436,0.186-0.441,0.424
			c-0.027,1.425-0.054,1.592-0.102,1.898c-0.022,0.146-0.049,0.327-0.084,0.649c-0.334-0.052-0.66-0.09-0.99-0.133
			c-0.032-0.306-0.059-0.482-0.082-0.624c-0.048-0.308-0.075-0.478-0.101-1.881c-0.004-0.239-0.197-0.429-0.442-0.424
			c-0.239,0.004-0.429,0.203-0.424,0.442c0.03,1.461,0.059,1.651,0.113,1.996c0.014,0.097,0.032,0.214,0.051,0.375
			c-4.155-0.474-7.841-0.331-10.477,0.444c-4.035,0.865-6.417,3.564-9.174,6.689c-1.741,1.972-3.539,3.995-5.941,5.802
			c-0.057-2.947-0.801-6.345-1.859-9.34c-1.406-4.309-3.449-7.889-5.347-8.023l-0.203-0.007c-3.203,0-10.344,5.248-13.426,9.81
			c-2.165-0.653-3.886-0.958-5.395-0.958c-0.209,0-0.415,0.006-0.619,0.018c0.192-1.295,0.62-2.32,2.532-3.592
			c0.198-0.133,0.252-0.402,0.12-0.601c-0.133-0.199-0.401-0.253-0.601-0.12c-2.299,1.53-2.738,2.866-2.939,4.407
			c-0.146,0.021-0.291,0.046-0.435,0.075c-0.066-0.423-0.233-0.831-0.402-1.229c-0.426-1.008-0.627-1.61,0.185-2.278
			c0.184-0.153,0.211-0.424,0.06-0.609c-0.153-0.185-0.426-0.211-0.61-0.059c-1.351,1.11-0.821,2.368-0.432,3.285
			c0.165,0.391,0.317,0.763,0.352,1.103c-0.492,0.15-0.977,0.347-1.461,0.591c-0.165-1.219-0.572-2.381-2.142-3.699
			c-0.183-0.154-0.457-0.13-0.612,0.053c-0.153,0.184-0.13,0.457,0.055,0.611c1.488,1.249,1.754,2.256,1.88,3.488
			c-1.287,0.792-2.608,1.944-4.1,3.531c-3.136-1.528-8.212-2.62-12.258-2.62c-1.437,0-3.377,0.151-4.449,0.868
			c-1.069,0.713-1.396,2.644-1.436,4.546c-0.169,3.218,0.591,7.711,2.119,11.522c0.519,1.365,1.107,2.59,1.737,3.591
			c-3.549,4.372-4.47,8.726-2.662,12.608c-2.485,1.386-4.826,2.928-7.007,4.633c-0.095,0.072-0.113,0.211-0.038,0.305l0.172,0.085
			l0.135-0.046c2.159-1.688,4.476-3.215,6.936-4.587c0.243,0.469,0.522,0.925,0.833,1.365c-2.14,1.372-4.329,2.943-6.693,4.789
			c-0.095,0.075-0.112,0.211-0.038,0.308L8.99,58.37l0.134-0.046c2.359-1.843,4.546-3.412,6.68-4.778
			c0.411,0.539,0.875,1.055,1.381,1.55c-2.159,1.512-4.389,3.189-6.774,5.052c-0.095,0.073-0.113,0.211-0.038,0.306l0.173,0.085
			l0.134-0.047c2.405-1.88,4.65-3.568,6.826-5.088c1.821,1.688,4.169,3.107,6.8,4.25c-6.136,1.293-10.269,3.16-10.894,5.814
			c-0.584,2.368-3.276,14.2-3.724,17.797c-0.354,2.889-0.14,4.448,2.031,5.499c3.78,1.83,18.668,2.953,27.679,2.953
			c4.448,0,9.403,0.037,14.192,0.073c4.773,0.037,9.712,0.074,14.134,0.074h0.941c4.449,0,9.45-0.038,14.286-0.074
			c4.836-0.037,9.836-0.073,14.281-0.073c8.455,0,22.655-0.786,27.123-2.954C126.319,87.813,127.048,86.021,126.648,83.127
			 M46.576,27.999c0.108,0,0.214-0.038,0.299-0.118c2.206-2.094,4.878-3.022,7.519-2.623c0.236,0.036,0.458-0.124,0.493-0.362
			c0.038-0.236-0.125-0.457-0.361-0.493c-2.914-0.446-5.842,0.567-8.247,2.848c-0.173,0.165-0.18,0.44-0.016,0.613
			C46.346,27.954,46.462,27.999,46.576,27.999 M43.19,51.162c-0.763-0.61-1.041-1.504-1.231-2.352
			c-0.044-0.175-0.087-0.379-0.131-0.592c-0.3-1.447-0.624-2.551-1.819-2.551c-0.277,0-0.599,0.057-0.954,0.169
			c-1.102,0.369-1.749,1.019-1.817,1.829c-0.082,0.964,0.678,1.996,1.979,2.691c0.115,0.068,0.275,0.132,0.452,0.195
			c-0.19-0.533-0.55-1.195-0.681-1.901c-0.101-0.544-0.022-1.066,0.209-1.275c0.35-0.317,0.653-0.131,0.802,0.198
			c0.125,0.277,0.14,0.965,0.637,1.604c0.462,0.593,0.769,1.01,1.285,1.863C42.379,51.101,42.822,51.145,43.19,51.162
			 M42.885,41.836c-0.083-0.333-0.291-0.539-0.457-0.497c-0.206,0.04-0.331,0.289-0.25,0.621c0.043,0.291,0.25,0.542,0.458,0.498
			C42.844,42.415,42.927,42.124,42.885,41.836 M54.597,46.61c0.079,0.226-0.038,0.474-0.264,0.554
			c-0.811,0.285-1.48,0.952-2.127,1.598c-0.513,0.514-1.035,0.952-1.525,1.262c-0.857,0.541-1.458,0.655-2.131,0.638
			c-0.283-0.007-0.562-0.051-0.832-0.172c-0.222-0.101-0.435-0.251-0.642-0.455c-0.061,0.348-0.166,0.636-0.318,0.88
			c-0.311,0.505-0.801,0.812-1.559,0.987c-0.472,0.099-0.692,0.11-1.176,0.143c-0.187,0-0.321-0.009-0.512-0.009
			c-1.256,0-3.778-0.369-4.716-0.928c-1.595-0.848-2.528-2.2-2.419-3.517c0.097-1.16,0.977-2.1,2.412-2.579
			c0.446-0.143,0.855-0.213,1.222-0.213c1.995,0,2.4,1.951,2.667,3.241c0.043,0.204,0.082,0.395,0.126,0.57
			c0.273,1.211,0.638,1.885,1.638,2.291c0.192,0.078,0.33,0.11,0.561,0.11c0.22-0.011,0.337-0.021,0.494-0.099
			c0.263-0.105,0.483-0.278,0.605-0.472c0.21-0.337,0.263-0.824,0.219-1.088c-0.035-0.211-0.153-0.571-0.23-0.791
			c-0.484-1.373-0.704-1.934-1.305-3.617c-1.453-0.183-3.946-0.765-4.474-2.627c-0.195-0.685-0.101-1.357,0.28-1.996
			c0.821-1.382,2.482-2.067,3.257-2.265c0.185-0.047,0.545-0.111,0.934-0.132c1.039-0.057,3.82,0.163,4.211,2.003
			c0.292,1.408-0.62,2.963-2.686,4.626c0.299,1.371,0.42,1.942,0.705,3.261c0.088,0.384,0.153,0.649,0.296,1.066
			c0.115,0.335,0.372,0.678,0.765,0.818c0.542,0.192,1.241,0.156,2.205-0.412c0.498-0.293,0.857-0.68,1.315-1.138
			c0.682-0.68,1.455-1.452,2.451-1.803C54.269,46.266,54.517,46.386,54.597,46.61 M38.896,40.503
			c-0.275-1.662-1.763-4.867-4.84-4.867c-0.767,0-1.591,0.206-2.45,0.613c-0.346,1.183-0.225,2.19,0.365,2.994
			c0.41,0.56,1.004,0.957,1.664,1.237c-0.312-0.53-0.416-1.366-0.207-2.254c0.291-1.411,1.203-2.448,2.032-2.321
			c0.787,0.124,1.243,1.367,0.952,2.778c-0.24,1.026-0.788,1.869-1.373,2.208c0.452,0.079,0.9,0.12,1.316,0.12
			C37.314,41.011,38.226,40.828,38.896,40.503 M39.37,40.933c-0.78,0.438-1.851,0.678-3.015,0.678c-1.641,0-3.782-0.529-4.868-2.015
			c-0.718-0.98-0.861-2.242-0.415-3.649l0.038-0.123l0.115-0.056c0.984-0.485,1.937-0.73,2.831-0.73c3.607,0,5.263,3.846,5.464,5.6
			l0.024,0.199L39.37,40.933z M53.546,30.307c-1.675,0.142-2.922,0.747-3.721,1.793c0.053-0.082,0.116-0.157,0.192-0.219
			c0.622-0.498,1.95-0.041,2.905,1.037c0.59,0.669,0.91,1.416,0.919,2.017c0.3-0.38,0.543-0.785,0.699-1.209
			C54.991,32.496,54.656,31.346,53.546,30.307 M52.758,36.011c-0.678-0.028-1.529-0.469-2.201-1.227
			c-0.831-0.94-1.126-2.036-0.75-2.659c-0.079,0.106-0.159,0.21-0.228,0.324c-1.043,1.696-0.81,3.903-0.372,5.109
			C50.314,37.465,51.667,36.878,52.758,36.011 M55.103,33.932c-0.862,2.353-3.925,4.178-6.088,4.237l-0.205,0.006l-0.079-0.19
			c-0.533-1.264-0.883-3.864,0.337-5.851c0.9-1.467,2.437-2.287,4.564-2.436l0.126-0.009l0.095,0.084
			C55.579,31.321,55.485,32.889,55.103,33.932 M28.473,32.152c-0.079,0.066-0.176,0.096-0.272,0.096c-0.127,0-0.25-0.055-0.337-0.16
			c-0.151-0.185-0.122-0.458,0.065-0.609c2.169-1.76,5.126-2.278,8.334-1.458c0.232,0.06,0.371,0.295,0.312,0.527
			c-0.06,0.232-0.298,0.369-0.527,0.313C33.072,30.1,30.454,30.546,28.473,32.152 M97.399,20.886
			c0.003-0.24,0.185-0.428,0.441-0.425c2.827,0.045,5.413,1.721,7.276,4.72c0.127,0.204,0.065,0.47-0.139,0.597
			c-0.072,0.043-0.15,0.065-0.228,0.065c-0.145,0-0.286-0.072-0.368-0.204c-1.704-2.74-4.032-4.271-6.556-4.312
			C97.586,21.323,97.395,21.125,97.399,20.886 M96.814,55.672c-0.779,0.104-1.552,0.088-2.308-0.05
			c0.522-0.853,1.63-1.548,1.837-2.596c0.08-0.406-0.019-0.682-0.305-0.835c-0.579-0.309-0.738,0.3-1.065,0.754
			c-0.154,0.213-0.44,0.444-0.686,0.586c-0.581,0.337-1.337,0.664-1.818,1.27c-0.673-0.471-1.196-1.098-1.575-1.852
			c-0.101-0.202-0.186-0.433-0.261-0.678c1.796-0.16,3.838-1.3,5.267-2.248c1.638-1.086,3.051-2.025,4.345-1.476
			c0.562,0.247,0.847,0.643,0.884,1.209C101.253,51.609,98.655,54.555,96.814,55.672 M88.301,36.36
			c-0.084,0.498-0.458,0.829-0.791,0.787c-0.288-0.082-0.496-0.578-0.371-1.077c0.123-0.497,0.455-0.831,0.784-0.788
			C88.259,35.365,88.427,35.862,88.301,36.36 M101.425,53.828c-0.389,0.257-0.95,0.623-2.025,1.096
			c-0.173,0.076-0.347,0.144-0.52,0.21c1.733-1.513,3.216-3.726,3.114-5.428c-0.054-0.896-0.538-1.57-1.405-1.953
			c-1.726-0.733-3.398,0.376-5.169,1.551c-1.544,1.024-3.12,2.081-4.899,2.044l-0.098-0.003c-0.145-0.925-0.172-2.052-0.102-3.368
			c0.055-1.023,0.227-2.193,0.401-3.183c2.364-0.793,6.294-3.345,6.785-5.902c0.537-2.767-2.71-5.165-4.99-5.47
			c-2.199-0.654-6.163,0.218-6.784,2.99c-0.623,2.608,2.146,6.702,3.999,8.262c-0.306,1.002-0.719,2.235-1.172,3.244
			c-0.909,2.022-1.817,3.458-2.784,4.162c-1.204,0.875-2.617,1.22-4.219,0.791c-1.64-0.44-3.072-1.478-4.248-2.93
			c-0.74-0.912-1.069-1.494-1.3-1.901c-0.149-0.263-0.4-0.751-0.751-0.561c-0.403,0.221-0.204,0.733,0.088,1.231
			c0.293,0.498,0.638,1.207,1.758,2.403c0.879,0.937,2.022,2.022,3.868,2.637c1.468,0.489,3.369,0.381,4.687-0.44
			c1.319-0.821,2.403-2.139,3.341-4.014c0.11-0.221,0.213-0.442,0.314-0.665C89.307,48.753,89.301,48.876,89.3,49
			c-0.025,2.097,0.337,3.765,1.133,5.098c0.797,1.333,2.436,2.299,3.965,2.536c1.924,0.297,3.435-0.144,4.647-0.575
			c1.543-0.55,2.175-1.023,2.663-1.332c0.487-0.308,0.899-0.674,0.642-1.054C102.126,53.343,101.679,53.664,101.425,53.828
			 M92.061,27.068c0.326,0.771,0.333,1.62,0.018,2.393c-0.032,0.081-0.076,0.156-0.115,0.233c0.168-1.093-0.439-2.196-1.508-2.623
			c-1.202-0.498-2.656,0.084-3.151,1.327c-0.429,1.071-0.023,2.263,0.866,2.894l-0.228-0.069c-0.792-0.317-1.412-0.922-1.743-1.7
			c-0.331-0.779-0.338-1.646-0.02-2.437c0.476-1.169,1.663-1.952,2.952-1.952c0.409,0,0.806,0.078,1.184,0.233
			C91.11,25.684,91.729,26.288,92.061,27.068 M85.623,26.859c-0.377,0.942-0.368,1.97,0.025,2.896
			c0.394,0.927,1.129,1.646,2.069,2.022c0.446,0.183,0.92,0.277,1.405,0.277c1.536,0,2.948-0.952,3.513-2.369
			c0.377-0.919,0.368-1.932-0.021-2.851c-0.394-0.929-1.131-1.648-2.072-2.025c-0.448-0.183-0.923-0.277-1.409-0.277
			C87.603,24.533,86.193,25.468,85.623,26.859 M82.49,23.616c-0.087,0.097-0.205,0.147-0.325,0.147
			c-0.102,0-0.204-0.035-0.286-0.109c-0.181-0.159-0.195-0.433-0.038-0.612c2.3-2.594,5.11-3.741,7.911-3.232
			c0.236,0.042,0.392,0.267,0.348,0.503c-0.043,0.235-0.267,0.392-0.504,0.348C87.107,20.211,84.579,21.259,82.49,23.616
			 M94.853,29.931c0.038-1.694,1.423-3.073,3.085-3.073l0.151,0.003c0.856,0.02,1.649,0.375,2.231,0.999
			c0.579,0.62,0.879,1.428,0.839,2.281c-0.041,1.693-1.462,3.071-3.165,3.071h-0.066c-0.1-0.004-0.194-0.029-0.291-0.043
			c1.095-0.204,1.949-1.169,1.987-2.324c0.039-1.328-0.998-2.448-2.364-2.489c-1.132-0.034-2.105,0.716-2.397,1.784L94.853,29.931
			 M97.908,33.81l0.086,0.001c2.026,0,3.716-1.641,3.765-3.651c0.044-1.009-0.31-1.972-1-2.709
			c-0.695-0.745-1.638-1.166-2.649-1.189c-2.054-0.095-3.809,1.579-3.856,3.646c-0.048,0.97,0.296,1.908,0.964,2.641
			C95.913,33.314,96.866,33.762,97.908,33.81"/>
	</g>
</g>
</svg>
